<?xml version="1.0" encoding="utf-8"?>
<!-- Generator: Adobe Illustrator 26.0.3, SVG Export Plug-In . SVG Version: 6.00 Build 0)  -->
<svg version="1.0" id="katman_1" xmlns="http://www.w3.org/2000/svg" xmlns:xlink="http://www.w3.org/1999/xlink" x="0px" y="0px"
	 viewBox="0 0 779.1 565.2" style="enable-background:new 0 0 779.1 565.2;" xml:space="preserve">
<style type="text/css">
	.st0{fill:#2D3E51;}
	.st1{fill:#2FC877;}
</style>
<path class="st0" d="M140.3,180.7h-9.9c-12.6,0-18.7,3.7-18.7,10.9v180.1c0,7.1,6.1,10.9,18.7,10.9h9.9c12.2,0,18.7-3.7,18.7-10.9
	V191.5C159,184.4,152.6,180.7,140.3,180.7z"/>
<path class="st0" d="M314.7,360.8c0-21.4,13.9-39.8,33.3-45.9c2.4-9.9,3.4-21.1,3.4-33c0-65.6-33-101.3-92.4-101.3h-63.5
	c-8.8,0-12.9,4.1-12.9,12.9v175.7c0,8.8,4.1,12.9,12.9,12.9h63.5c22.8,0,41.5-5.1,56.1-15.3C314.7,365.2,314.7,362.8,314.7,360.8z
	 M258.9,342.1h-29.2v-121h29.2c36.7,0,44.2,33,44.2,60.5C303.1,309.1,295.7,342.1,258.9,342.1z"/>
<circle class="st1" cx="362.9" cy="360.8" r="22.1"/>
<path class="st0" d="M676.3,329.5c-0.7-0.3-1.4-0.3-2-0.3c-3.1,0-5.1,1-6.8,4.1c-1,1.7-2,3.4-3.1,5.4c-4.1,6.8-8.2,13.9-14.3,19
	c-8.2,6.8-20.1,10.2-30.2,8.2c-6.1-1-10.2-5.4-12.9-8.8c-4.8-6.5-6.8-15-6.5-24.8c15-1.4,59.8-7.8,63.5-41.8
	c0.7-6.5-1-12.6-5.4-17.3c-5.4-6.1-13.9-9.2-24.1-9.2c-29.9,0-59.5,31.3-63.2,66.9c-1,9.9,0.3,18.7,3.7,26.8
	c-2.7,2.4-5.1,4.1-7.5,5.1c-2.4,1.4-4.8,1.4-6.1,0.7c-2-1-2.7-3.1-3.1-5.1c-1-6.5,0.3-13.9,2-21.7c1-4.4,2.4-9.2,3.4-13.6
	c3.7-12.9,7.5-26.2,6.1-39.8c-1-12.2-9.9-20.1-22.8-20.1c-18,0-29.9,12.9-37.4,23.8c0-8.2-2-14.3-5.8-18s-8.8-5.8-16-5.8
	c-17.7,0-29.2,12.2-37,23.1c0-1,0.3-2,0.3-3.1c0.3-4.8,0.7-11.2-3.1-15.3c-2-2.4-5.4-3.7-9.9-3.7c-3.7,0-4.8,0-8.8,0.7
	c0,0-4.1,0.7-5.4,2c-2.7,2.4-1.7,5.8-1.4,7.8c0,0.3,0,0.3,0,0.7c0.3,1.7,0.3,4.1,0.3,6.5c-0.7,12.9-3.1,25.8-5.1,37
	c-1.4,5.8-2.7,11.9-4.1,18c-3.1,13.3-6.1,26.8-7.8,40.4c-0.3,1.4,0.3,2.7,1,3.7c1,1,2.4,1.7,3.7,1.7h1c9.9,0,19.4-0.3,21.4-5.8
	c2.4-6.1,3.7-13.6,5.1-20.1l0.7-3.1c2.7-15,5.4-25.8,10.5-39.8c2.7-7.1,7.5-13.6,11.2-18.4c4.8-5.8,9.9-11.6,15.3-11.6
	c2.4,0,3.7,0.7,5.1,2c5.4,7.5-1.4,31.3-4.4,41.1c-0.7,2-1,4.1-1.4,5.4l-2,7.8c-3.1,11.6-6.1,23.1-7.5,35.3c0,1.4-0.3,2.4-0.3,3.7
	v1.7l1.4,1c2.4,2,20.4-0.7,20.4-0.7c6.5-2.4,8.2-8.5,8.5-10.5c1.4-5.4,2.4-10.5,3.4-16V355c2-9.9,4.1-20.1,7.1-29.6
	c5.8-19,13.9-31.9,23.4-38.7c4.1-2.7,8.5-3.1,10.2-0.7c3.4,4.1,1.4,15.3,0.3,20.1c-1.4,6.5-2.7,13.3-4.4,19.7v0.3
	c-1,4.1-2,8.2-3.1,12.6c-2.7,12.9-5.1,28.9,2,38.1c3.7,4.8,9.5,7.1,17,7.1c8.2,0,15.6-2.7,23.8-8.5c2.4-1.7,4.4-3.4,7.1-5.8
	c9.2,10.5,19.7,15,34.7,15c34,0,50-22.8,59.1-39.8c1-2,2.4-4.8,3.1-6.8C680.7,334.3,679.3,330.9,676.3,329.5z M634.5,286.7
	c0,0.7,0,1,0,1.7c0,0.7,0,1.7,0,2.4c-0.3,2.7-0.7,5.4-1.7,7.8c-4.8,15.6-18.7,18.7-30.2,19c1.7-6.8,4.1-13.6,6.8-19.4
	c5.8-11.9,12.9-19,19-19c0.7,0,1,0,1.7,0.3c0.3,0,0.3,0.3,0.7,0.3h0.3h0.3c0.3,0,0.3,0.3,0.7,0.7l0.3,0.3c0,0,0,0,0.3,0.3
	c0,0.3,0.3,0.3,0.3,0.7l0.3,0.3c0,0.3,0.3,0.3,0.3,0.7c0,0,0,0.3,0.3,0.7c0,0.3,0.3,0.7,0.3,1.4v0.3c0,0.3,0.3,1,0.3,1.7
	L634.5,286.7z"/>
</svg>
